name analog
datacolumns 19
datarows 41
range 0.518 0.538
endheader
time	ground_force_vx	ground_force_vy	ground_force_vz	ground_force_px	ground_force_py	ground_force_pz	l_ground_force_vx	l_ground_force_vy	l_ground_force_vz	l_ground_force_px	l_ground_force_py	l_ground_force_pz	ground_torque_x	ground_torque_y	ground_torque_z	l_ground_torque_x	l_ground_torque_y	l_ground_torque_z
0.518	-0.0	-0.0	-0.0	-0.0	-0.0	-0.0	-11.805475234985352	-10.849746704101562	-430.90771484375	-0.0	-0.0	-0.0	-0.0	-0.0	-0.0	143265.21875	-11528.7900390625	-4234.54248046875
0.5185	-0.0	-0.0	-0.0	-0.0	-0.0	-0.0	-13.579744338989258	-10.768281936645508	-434.8226623535156	-0.0	-0.0	-0.0	-0.0	-0.0	-0.0	143546.921875	-11013.4609375	-4840.6142578125
0.519	-0.0	-0.0	-0.0	-0.0	-0.0	-0.0	-14.616132736206056	-10.775245666503906	-436.32855224609375	-0.0	-0.0	-0.0	-0.0	-0.0	-0.0	144102.578125	-11056.6611328125	-5313.56689453125
0.5195	-0.0	-0.0	-0.0	-0.0	-0.0	-0.0	-15.17667007446289	-10.57731819152832	-438.2820129394531	-0.0	-0.0	-0.0	-0.0	-0.0	-0.0	144824.578125	-11247.7099609375	-5553.50732421875
0.52	-0.0	-0.0	-0.0	-0.0	-0.0	-0.0	-15.169544219970703	-9.486211776733398	-439.1761169433594	-0.0	-0.0	-0.0	-0.0	-0.0	-0.0	145485.828125	-10926.259765625	-5713.501953125
0.5205	-0.0	-0.0	-0.0	-0.0	-0.0	-0.0	-14.29692840576172	-8.810525894165039	-441.7623596191406	-0.0	-0.0	-0.0	-0.0	-0.0	-0.0	146556.453125	-11081.6787109375	-5710.32421875
0.521	-0.0	-0.0	-0.0	-0.0	-0.0	-0.0	-14.060232162475586	-8.037273406982422	-445.1683349609375	-0.0	-0.0	-0.0	-0.0	-0.0	-0.0	147406.90625	-11251.744140625	-5685.21728515625
0.5215	-0.0	-0.0	-0.0	-0.0	-0.0	-0.0	-13.691001892089844	-6.933207988739014	-449.2418823242188	-0.0	-0.0	-0.0	-0.0	-0.0	-0.0	148548.328125	-11424.1796875	-5820.7109375
0.522	-0.0	-0.0	-0.0	-0.0	-0.0	-0.0	-13.440102577209473	-5.755768775939941	-450.376220703125	-0.0	-0.0	-0.0	-0.0	-0.0	-0.0	149826.234375	-11807.6396484375	-5919.1552734375
0.5225	-0.0	-0.0	-0.0	-0.0	-0.0	-0.0	-12.944258689880373	-4.791821002960205	-452.3821411132813	-0.0	-0.0	-0.0	-0.0	-0.0	-0.0	150643.671875	-12114.0302734375	-5901.0
0.523	-0.0	-0.0	-0.0	-0.0	-0.0	-0.0	-12.153377532958984	-3.3562240600585938	-454.1568908691406	-0.0	-0.0	-0.0	-0.0	-0.0	-0.0	151742.609375	-12423.80859375	-5793.9833984375
0.5235	-0.0	-0.0	-0.0	-0.0	-0.0	-0.0	-11.62876033782959	-2.0694689750671387	-456.6000061035156	-0.0	-0.0	-0.0	-0.0	-0.0	-0.0	152350.3125	-12641.9130859375	-5652.6357421875
0.524	-0.0	-0.0	-0.0	-0.0	-0.0	-0.0	-10.942273139953612	-0.906250536441803	-458.8155822753906	-0.0	-0.0	-0.0	-0.0	-0.0	-0.0	153760.09375	-13387.5869140625	-5690.6142578125
0.5245	-0.0	-0.0	-0.0	-0.0	-0.0	-0.0	-10.653061866760254	0.1457075476646423	-461.866455078125	-0.0	-0.0	-0.0	-0.0	-0.0	-0.0	154668.53125	-13729.9287109375	-5727.50390625
0.525	-0.0	-0.0	-0.0	-0.0	-0.0	-0.0	-10.361039161682127	0.3376692235469818	-464.4025268554688	-0.0	-0.0	-0.0	-0.0	-0.0	-0.0	155853.84375	-14009.0927734375	-5775.2197265625
0.5255	-0.0	-0.0	-0.0	-0.0	-0.0	-0.0	-10.532862663269045	0.7144457697868347	-467.9254150390625	-0.0	-0.0	-0.0	-0.0	-0.0	-0.0	156682.015625	-14477.890625	-5872.857421875
0.526	-0.0	-0.0	-0.0	-0.0	-0.0	-0.0	-10.662147521972656	0.834640622138977	-469.95806884765625	-0.0	-0.0	-0.0	-0.0	-0.0	-0.0	157775.3125	-14896.9150390625	-5851.1865234375
0.5265	-0.0	-0.0	-0.0	-0.0	-0.0	-0.0	-10.984060287475586	0.2809711396694183	-471.0688171386719	-0.0	-0.0	-0.0	-0.0	-0.0	-0.0	158310.484375	-15126.037109375	-6002.564453125
0.527	-0.0	-0.0	-0.0	-0.0	-0.0	-0.0	-11.483846664428713	-0.1044358164072036	-473.1641540527344	-0.0	-0.0	-0.0	-0.0	-0.0	-0.0	159155.484375	-15295.876953125	-6323.92822265625
0.5275	-0.0	-0.0	-0.0	-0.0	-0.0	-0.0	-11.573250770568848	-0.6670548915863037	-473.3576965332031	-0.0	-0.0	-0.0	-0.0	-0.0	-0.0	159685.078125	-15390.3798828125	-6388.90087890625
0.528	-0.0	-0.0	-0.0	-0.0	-0.0	-0.0	-12.458820343017578	-1.3166279792785645	-475.227783203125	-0.0	-0.0	-0.0	-0.0	-0.0	-0.0	159980.359375	-15592.84375	-6465.564453125
0.5285	-0.0	-0.0	-0.0	-0.0	-0.0	-0.0	-12.7105131149292	-1.854755401611328	-476.2427978515625	-0.0	-0.0	-0.0	-0.0	-0.0	-0.0	160281.125	-16388.408203125	-6608.78857421875
0.529	-0.0	-0.0	-0.0	-0.0	-0.0	-0.0	-12.466394424438477	-2.2963638305664062	-476.5590515136719	-0.0	-0.0	-0.0	-0.0	-0.0	-0.0	160720.65625	-16590.916015625	-6514.265625
0.5295	-0.0	-0.0	-0.0	-0.0	-0.0	-0.0	-12.030987739562988	-2.384685516357422	-476.8570861816406	-0.0	-0.0	-0.0	-0.0	-0.0	-0.0	161455.5	-17286.69921875	-6290.79833984375
0.53	-0.0	-0.0	-0.0	-0.0	-0.0	-0.0	-11.105841636657717	-1.6950310468673706	-480.1838073730469	-0.0	-0.0	-0.0	-0.0	-0.0	-0.0	162183.59375	-17727.833984375	-6442.58447265625
0.5305	-0.0	-0.0	-0.0	-0.0	-0.0	-0.0	-11.105969429016112	-1.1822752952575684	-482.4264526367188	-0.0	-0.0	-0.0	-0.0	-0.0	-0.0	163062.0	-18198.388671875	-6409.90625
0.531	-0.0	-0.0	-0.0	-0.0	-0.0	-0.0	-10.93983268737793	-0.0968988686800003	-484.7919616699219	-0.0	-0.0	-0.0	-0.0	-0.0	-0.0	164272.625	-18642.822265625	-6483.2080078125
0.5315	-0.0	-0.0	-0.0	-0.0	-0.0	-0.0	-10.734004974365234	0.495314210653305	-486.7857666015625	-0.0	-0.0	-0.0	-0.0	-0.0	-0.0	164384.375	-19358.77734375	-6429.4736328125
0.532	-0.0	-0.0	-0.0	-0.0	-0.0	-0.0	-10.299206733703612	1.2638025283813477	-487.9761047363281	-0.0	-0.0	-0.0	-0.0	-0.0	-0.0	164547.390625	-19520.3046875	-6331.2998046875
0.5325	-0.0	-0.0	-0.0	-0.0	-0.0	-0.0	-10.538958549499512	1.333599090576172	-487.7648315429688	-0.0	-0.0	-0.0	-0.0	-0.0	-0.0	164979.390625	-19841.779296875	-6438.359375
0.533	-0.0	-0.0	-0.0	-0.0	-0.0	-0.0	-10.565470695495604	0.5653235912322998	-487.0315551757813	-0.0	-0.0	-0.0	-0.0	-0.0	-0.0	164961.90625	-20175.080078125	-6373.251953125
0.5335	-0.0	-0.0	-0.0	-0.0	-0.0	-0.0	-10.53868007659912	-0.2738772630691528	-488.3926696777344	-0.0	-0.0	-0.0	-0.0	-0.0	-0.0	164494.46875	-20446.98828125	-6293.34765625
0.534	-0.0	-0.0	-0.0	-0.0	-0.0	-0.0	-10.14011573791504	-1.5808013677597046	-485.3918151855469	-0.0	-0.0	-0.0	-0.0	-0.0	-0.0	164300.640625	-20768.09375	-6142.03125
0.5345	-0.0	-0.0	-0.0	-0.0	-0.0	-0.0	-10.670424461364746	-2.7991647720336914	-485.1503601074219	-0.0	-0.0	-0.0	-0.0	-0.0	-0.0	163687.453125	-20891.2109375	-5890.89111328125
0.535	-0.0	-0.0	-0.0	-0.0	-0.0	-0.0	-10.467872619628906	-4.160216331481934	-484.5505065917969	-0.0	-0.0	-0.0	-0.0	-0.0	-0.0	162970.046875	-21159.07421875	-5819.59765625
0.5355	-0.0	-0.0	-0.0	-0.0	-0.0	-0.0	-10.813501358032228	-5.880856513977051	-482.323486328125	-0.0	-0.0	-0.0	-0.0	-0.0	-0.0	162027.84375	-20847.79296875	-5776.3330078125
0.536	-0.0	-0.0	-0.0	-0.0	-0.0	-0.0	-11.20539379119873	-7.832917213439941	-480.8183288574219	-0.0	-0.0	-0.0	-0.0	-0.0	-0.0	161113.0625	-21170.2890625	-5877.2333984375
0.5365	-0.0	-0.0	-0.0	-0.0	-0.0	-0.0	-11.859240531921388	-9.538742065429688	-481.7557373046875	-0.0	-0.0	-0.0	-0.0	-0.0	-0.0	160266.765625	-21028.38671875	-5771.923828125
0.537	-0.0	-0.0	-0.0	-0.0	-0.0	-0.0	-11.40202808380127	-11.59824562072754	-478.48583984375	-0.0	-0.0	-0.0	-0.0	-0.0	-0.0	159804.921875	-21160.091796875	-5604.97265625
0.5375	-0.0	-0.0	-0.0	-0.0	-0.0	-0.0	-10.711607933044434	-12.83493995666504	-479.5851745605469	-0.0	-0.0	-0.0	-0.0	-0.0	-0.0	159756.046875	-21589.2734375	-5152.26025390625
0.538	-0.0	-0.0	-0.0	-0.0	-0.0	-0.0	-10.13213062286377	-14.771482467651367	-481.7540588378906	-0.0	-0.0	-0.0	-0.0	-0.0	-0.0	160018.015625	-21851.5390625	-4882.24755859375
